<?xml version="1.0" encoding="iso-8859-1"?>
<!-- Generator: Adobe Illustrator 18.1.1, SVG Export Plug-In . SVG Version: 6.00 Build 0)  -->
<svg version="1.1" id="Capa_1" xmlns="http://www.w3.org/2000/svg" xmlns:xlink="http://www.w3.org/1999/xlink" x="0px" y="0px"
	 viewBox="0 0 47.054 47.054" style="enable-background:new 0 0 47.054 47.054;" xml:space="preserve">
<g>
	<path style="fill:#010002;" d="M46.614,44.146l-12.189-12.19c2.718-3.337,4.354-7.589,4.354-12.219
		c0-10.692-8.697-19.39-19.389-19.39S0,9.044,0,19.737c0,10.691,8.698,19.389,19.39,19.389c4.982,0,9.518-1.906,12.957-5.006
		l12.146,12.147c0.293,0.293,0.678,0.439,1.061,0.439c0.385,0,0.768-0.146,1.061-0.439C47.2,45.682,47.2,44.731,46.614,44.146z
		 M1.999,19.736c0-9.589,7.801-17.39,17.39-17.39c9.588,0,17.389,7.801,17.389,17.39c0,4.599-1.809,8.775-4.734,11.889
		c-0.014,0.012-0.029,0.016-0.043,0.028c-0.02,0.021-0.026,0.048-0.045,0.068c-3.169,3.321-7.625,5.403-12.566,5.403
		C9.8,37.125,1.999,29.324,1.999,19.736z"/>
</g>
<g>
</g>
<g>
</g>
<g>
</g>
<g>
</g>
<g>
</g>
<g>
</g>
<g>
</g>
<g>
</g>
<g>
</g>
<g>
</g>
<g>
</g>
<g>
</g>
<g>
</g>
<g>
</g>
<g>
</g>
</svg>
